<svg xmlns="http://www.w3.org/2000/svg" width="1200" height="420" viewBox="0 0 1200 420" font-family="Inter, Segoe UI, Helvetica, Arial, sans-serif">
  <defs>
    <linearGradient id="bg" x1="0" y1="0" x2="1" y2="1">
      <stop offset="0" stop-color="#0d1330"/><stop offset="0.55" stop-color="#152252"/><stop offset="1" stop-color="#1d2f6b"/>
    </linearGradient>
    <linearGradient id="freedom" x1="0" y1="0" x2="1" y2="1">
      <stop offset="0" stop-color="#4f7cff"/><stop offset="1" stop-color="#8b5cf6"/>
    </linearGradient>
    <linearGradient id="beam1" gradientUnits="userSpaceOnUse" x1="306" y1="214" x2="378" y2="214">
      <stop offset="0" stop-color="#6ea8ff" stop-opacity="0.15"/><stop offset="1" stop-color="#8ab4ff" stop-opacity="1"/>
    </linearGradient>
    <linearGradient id="beam2" gradientUnits="userSpaceOnUse" x1="722" y1="214" x2="796" y2="214">
      <stop offset="0" stop-color="#6ea8ff" stop-opacity="0.15"/><stop offset="1" stop-color="#a78bfa" stop-opacity="1"/>
    </linearGradient>
    <filter id="glow" x="-40%" y="-40%" width="180%" height="180%">
      <feGaussianBlur stdDeviation="8" result="b"/><feMerge><feMergeNode in="b"/><feMergeNode in="SourceGraphic"/></feMerge>
    </filter>
  </defs>

  <rect width="1200" height="420" fill="url(#bg)"/>
  <g opacity="0.10" stroke="#9db4ff" stroke-width="1">
    <path d="M0 60H1200M0 120H1200M0 180H1200M0 240H1200M0 300H1200M0 360H1200"/>
    <path d="M60 0V420M180 0V420M300 0V420M420 0V420M540 0V420M660 0V420M780 0V420M900 0V420M1020 0V420M1140 0V420"/>
  </g>

  <!-- Approved plan -->
  <g>
    <rect x="70" y="100" width="220" height="228" rx="12" fill="#0a1130" stroke="#6d81c4" stroke-width="1.6"/>
    <rect x="70" y="100" width="220" height="36" rx="12" fill="#16224d"/>
    <rect x="70" y="124" width="220" height="12" fill="#16224d"/>
    <text x="90" y="124" fill="#c9d6ff" font-size="13" letter-spacing="1.5">plan.md</text>
    <g fill="#6d81c4">
      <rect x="90" y="156" width="150" height="7" rx="3.5"/><rect x="90" y="176" width="120" height="7" rx="3.5"/>
      <rect x="90" y="196" width="160" height="7" rx="3.5"/><rect x="90" y="216" width="104" height="7" rx="3.5"/>
      <rect x="90" y="236" width="140" height="7" rx="3.5"/><rect x="90" y="256" width="126" height="7" rx="3.5"/>
      <rect x="90" y="276" width="90" height="7" rx="3.5"/>
    </g>
    <g filter="url(#glow)">
      <circle cx="270" cy="300" r="22" fill="#0f2a22" stroke="#34d399" stroke-width="2.5"/>
      <path d="M259 300l8 8 14-16" fill="none" stroke="#34d399" stroke-width="3.5" stroke-linecap="round" stroke-linejoin="round"/>
    </g>
  </g>
  <text x="180" y="368" fill="#8ea3d8" font-size="17" letter-spacing="2.5" text-anchor="middle">APPROVED PLAN</text>

  <path d="M306 214H372" stroke="url(#beam1)" stroke-width="4" stroke-linecap="round"/>
  <path d="M378 214l-14-7v14z" fill="#8ab4ff"/>

  <!-- Task folder: one task, one sub-agent -->
  <text x="560" y="84" fill="#9db4ff" font-size="14" letter-spacing="1.4" text-anchor="middle">ONE TASK · ONE SUB-AGENT</text>
  <g font-family="SFMono-Regular, Menlo, monospace" font-size="12">
    <!-- done -->
    <rect x="400" y="104" width="220" height="36" rx="8" fill="#12203f" stroke="#2f4a7a" stroke-width="1.4"/>
    <circle cx="420" cy="122" r="8" fill="#0f2a22" stroke="#34d399" stroke-width="2"/>
    <path d="M416 122l3 3 5-6" fill="none" stroke="#34d399" stroke-width="2" stroke-linecap="round" stroke-linejoin="round"/>
    <text x="438" y="126" fill="#94a3b8">refs</text><text x="600" y="126" fill="#34d399" text-anchor="end">done</text>
    <rect x="400" y="150" width="220" height="36" rx="8" fill="#12203f" stroke="#2f4a7a" stroke-width="1.4"/>
    <circle cx="420" cy="168" r="8" fill="#0f2a22" stroke="#34d399" stroke-width="2"/>
    <path d="M416 168l3 3 5-6" fill="none" stroke="#34d399" stroke-width="2" stroke-linecap="round" stroke-linejoin="round"/>
    <text x="438" y="172" fill="#94a3b8">scaffold</text><text x="600" y="172" fill="#34d399" text-anchor="end">done</text>
    <!-- in progress -->
    <g filter="url(#glow)">
      <rect x="400" y="196" width="220" height="36" rx="8" fill="#17295a" stroke="#8ab4ff" stroke-width="2"/>
    </g>
    <circle cx="420" cy="214" r="8" fill="none" stroke="#8ab4ff" stroke-width="2" stroke-dasharray="30 20"/>
    <circle cx="420" cy="214" r="3" fill="#8ab4ff"/>
    <text x="438" y="218" fill="#c9d6ff">form page</text><text x="600" y="218" fill="#8ab4ff" text-anchor="end">running</text>
    <!-- todo -->
    <rect x="400" y="242" width="220" height="36" rx="8" fill="#0e1735" stroke="#26375f" stroke-width="1.4" stroke-dasharray="5 4"/>
    <circle cx="420" cy="260" r="8" fill="none" stroke="#50638f" stroke-width="2"/>
    <text x="438" y="264" fill="#6b7a9f">list page</text><text x="600" y="264" fill="#6b7a9f" text-anchor="end">todo</text>
    <rect x="400" y="288" width="220" height="36" rx="8" fill="#0e1735" stroke="#26375f" stroke-width="1.4" stroke-dasharray="5 4"/>
    <circle cx="420" cy="306" r="8" fill="none" stroke="#50638f" stroke-width="2"/>
    <text x="438" y="310" fill="#6b7a9f">review</text><text x="600" y="310" fill="#6b7a9f" text-anchor="end">todo</text>
  </g>
  <!-- sub-agents -->
  <g stroke-width="1.6">
    <path d="M620 122H676" stroke="#34d399" stroke-opacity="0.55"/>
    <path d="M620 168H676" stroke="#34d399" stroke-opacity="0.55"/>
    <path d="M620 214H676" stroke="#8ab4ff"/>
    <path d="M620 260H676" stroke="#50638f" stroke-dasharray="3 4"/>
    <path d="M620 306H676" stroke="#50638f" stroke-dasharray="3 4"/>
  </g>
  <g>
    <circle cx="690" cy="122" r="13" fill="#0a1130" stroke="#34d399" stroke-width="2" stroke-opacity="0.8"/>
    <circle cx="690" cy="168" r="13" fill="#0a1130" stroke="#34d399" stroke-width="2" stroke-opacity="0.8"/>
    <circle cx="690" cy="214" r="13" fill="#0a1130" stroke="#8ab4ff" stroke-width="2.5" filter="url(#glow)"/>
    <circle cx="690" cy="260" r="13" fill="#0a1130" stroke="#50638f" stroke-width="2"/>
    <circle cx="690" cy="306" r="13" fill="#0a1130" stroke="#50638f" stroke-width="2"/>
    <g fill="#8ea3d8"><circle cx="690" cy="118" r="3.5"/><circle cx="690" cy="164" r="3.5"/><circle cx="690" cy="260" r="3.5" opacity="0.6"/><circle cx="690" cy="306" r="3.5" opacity="0.6"/></g>
    <circle cx="690" cy="210" r="3.5" fill="#c9d6ff"/>
    <g fill="none" stroke="#8ea3d8" stroke-width="2" stroke-linecap="round">
      <path d="M684 128q6-5 12 0"/><path d="M684 174q6-5 12 0"/>
      <path d="M684 266q6-5 12 0" opacity="0.6"/><path d="M684 312q6-5 12 0" opacity="0.6"/>
    </g>
    <path d="M684 220q6-5 12 0" fill="none" stroke="#c9d6ff" stroke-width="2" stroke-linecap="round"/>
  </g>
  <!-- progress -->
  <rect x="400" y="342" width="290" height="6" rx="3" fill="#1b2a5b"/>
  <rect x="400" y="342" width="145" height="6" rx="3" fill="url(#freedom)"/>
  <text x="545" y="372" fill="#8ea3d8" font-size="14" letter-spacing="1.2" text-anchor="middle" font-family="SFMono-Regular, Menlo, monospace">2 / 5 done · ~4 min left</text>

  <path d="M722 214H790" stroke="url(#beam2)" stroke-width="4" stroke-linecap="round"/>
  <path d="M796 214l-14-7v14z" fill="#a78bfa"/>

  <!-- Freedom page, verified -->
  <g>
    <rect x="818" y="96" width="310" height="232" rx="16" fill="#101a3f" stroke="url(#freedom)" stroke-width="2.5"/>
    <rect x="818" y="96" width="310" height="42" rx="16" fill="url(#freedom)" opacity="0.9"/>
    <rect x="818" y="120" width="310" height="18" fill="url(#freedom)" opacity="0.9"/>
    <rect x="838" y="109" width="90" height="14" rx="7" fill="#ffffff" opacity="0.85"/>
    <g fill="#1b2a5b">
      <rect x="838" y="156" width="124" height="32" rx="8"/><rect x="838" y="198" width="124" height="32" rx="8"/>
      <rect x="978" y="156" width="130" height="32" rx="8"/><rect x="978" y="198" width="130" height="32" rx="8"/>
      <rect x="838" y="244" width="270" height="64" rx="10"/>
    </g>
    <g fill="#6f8ad6">
      <rect x="848" y="166" width="66" height="8" rx="4"/><rect x="848" y="208" width="80" height="8" rx="4"/>
      <rect x="988" y="166" width="76" height="8" rx="4"/><rect x="988" y="208" width="58" height="8" rx="4"/>
      <rect x="850" y="258" width="112" height="8" rx="4"/><rect x="850" y="277" width="222" height="6" rx="3"/><rect x="850" y="290" width="186" height="6" rx="3"/>
    </g>
    <g filter="url(#glow)">
      <circle cx="1118" cy="318" r="26" fill="#0f2a22" stroke="#34d399" stroke-width="3"/>
      <path d="M1105 318l9 9 17-19" fill="none" stroke="#34d399" stroke-width="4" stroke-linecap="round" stroke-linejoin="round"/>
    </g>
  </g>
  <text x="973" y="368" fill="#c9d6ff" font-size="17" letter-spacing="2.5" text-anchor="middle">VERIFIED</text>
</svg>
